# xmcd
#
# Track frame offsets:
#	150
#	15900
#	34142
#	54196
#	70681
#	87763
#	103812
#	119425
#	136407
#	152932
#	170675
#	188172
#
# Disc length: 2717 seconds
#
# Revision: 0
# Processed by: cddbd v1.5.2PL0 Copyright (c) Steve Scherf et al.
# Submitted via: EZCDAudioConverter 1.0.4.1
#
DISCID=980a9b0c
DTITLE=อรวี สัจจานนท์ - 12 ปี แกรมมี่โกลด์
DYEAR=1900
DGENRE=
TTITLE0=กระทงหลงทาง
TTITLE1=คอยลมเกี่ยวใจ
TTITLE2=สาละวันสงสารใจ
TTITLE3=เรณูยิ่งหนาว
TTITLE4=ดอกไม้จะบาน
TTITLE5=คิดฮอตน้องแหน่
TTITLE6=ตัวไกลใจเหงา
TTITLE7=คิดถึงบ้าน
TTITLE8=ลำกล่อมกรุง
TTITLE9=สัญญาหน้าไฟ
TTITLE10=แคนลำโขง
TTITLE11=ลมรำเพย
EXTD=
EXTT0=
EXTT1=
EXTT2=
EXTT3=
EXTT4=
EXTT5=
EXTT6=
EXTT7=
EXTT8=
EXTT9=
EXTT10=
EXTT11=
PLAYORDER=
